{
  "accessors": [
    {
      "name": "Node-Mesh_0_positions",
      "componentType": 5126,
      "count": 3718,
      "min": [
        -301.1096496582031,
        804.434814453125,
        -204.74554443359375
      ],
      "max": [
        291.73138427734375,
        1457.6802978515625,
        133.09326171875
      ],
      "type": "VEC3",
      "bufferView": 0,
      "byteOffset": 0
    },
    {
      "name": "Node-Mesh_0_normals",
      "componentType": 5126,
      "count": 3718,
      "min": [
        -0.9993898272514343,
        -0.985140323638916,
        -0.9999205470085144
      ],
      "max": [
        0.999445915222168,
        0.933175265789032,
        0.9995553493499756
      ],
      "type": "VEC3",
      "bufferView": 1,
      "byteOffset": 0
    },
    {
      "name": "Node-Mesh_0_texcoords",
      "componentType": 5126,
      "count": 3718,
      "min": [
        -247.958740234375,
        -363.5159912109375
      ],
      "max": [
        247.958740234375,
        365.5159912109375
      ],
      "type": "VEC2",
      "bufferView": 2,
      "byteOffset": 0
    },
    {
      "name": "Node-Mesh_0_indices",
      "componentType": 5123,
      "count": 20652,
      "min": [
        0
      ],
      "max": [
        3717
      ],
      "type": "SCALAR",
      "bufferView": 3,
      "byteOffset": 0
    },
    {
      "name": "Node-Mesh_1_positions",
      "componentType": 5126,
      "count": 24,
      "min": [
        -83.10604858398438,
        1445.4613037109375,
        -108.43583679199219
      ],
      "max": [
        95.2530288696289,
        1470.2210693359375,
        -47.06196212768555
      ],
      "type": "VEC3",
      "bufferView": 0,
      "byteOffset": 44616
    },
    {
      "name": "Node-Mesh_1_normals",
      "componentType": 5126,
      "count": 24,
      "min": [
        -0.6220072507858276,
        0.5444911122322083,
        -0.8379302024841309
      ],
      "max": [
        0.5424132347106934,
        0.8831069469451904,
        0.3074750304222107
      ],
      "type": "VEC3",
      "bufferView": 1,
      "byteOffset": 44616
    },
    {
      "name": "Node-Mesh_1_texcoords",
      "componentType": 5126,
      "count": 24,
      "min": [
        -93.149169921875,
        -7.000487804412842
      ],
      "max": [
        93.149658203125,
        9
      ],
      "type": "VEC2",
      "bufferView": 2,
      "byteOffset": 29744
    },
    {
      "name": "Node-Mesh_1_indices",
      "componentType": 5123,
      "count": 66,
      "min": [
        0
      ],
      "max": [
        23
      ],
      "type": "SCALAR",
      "bufferView": 3,
      "byteOffset": 41304
    },
    {
      "name": "Node-Mesh_0_positions",
      "componentType": 5126,
      "count": 20645,
      "min": [
        -432.385009765625,
        0.5044869780540466,
        -200.13499450683594
      ],
      "max": [
        450.447998046875,
        1692.469970703125,
        139.52000427246094
      ],
      "type": "VEC3",
      "bufferView": 4,
      "byteOffset": 0
    },
    {
      "name": "Node-Mesh_0_normals",
      "componentType": 5126,
      "count": 20645,
      "min": [
        -0.9999352097511292,
        -0.9999289512634277,
        -0.9999353885650635
      ],
      "max": [
        0.9999938011169434,
        0.9999802112579346,
        0.999959409236908
      ],
      "type": "VEC3",
      "bufferView": 5,
      "byteOffset": 0
    },
    {
      "name": "Node-Mesh_0_texcoords",
      "componentType": 5126,
      "count": 20645,
      "min": [
        0.008724999614059925,
        0.010335000231862068
      ],
      "max": [
        0.9836320281028748,
        0.9956409931182861
      ],
      "type": "VEC2",
      "bufferView": 6,
      "byteOffset": 0
    },
    {
      "name": "Node-Mesh_0_indices",
      "componentType": 5123,
      "count": 114048,
      "min": [
        0
      ],
      "max": [
        20644
      ],
      "type": "SCALAR",
      "bufferView": 7,
      "byteOffset": 0
    },
    {
      "name": "Node-Mesh_0_positions",
      "componentType": 5126,
      "count": 3718,
      "min": [
        -303.28277587890625,
        803.37548828125,
        -204.84828186035156
      ],
      "max": [
        291.2702941894531,
        1457.5806884765625,
        133.1428680419922
      ],
      "type": "VEC3",
      "bufferView": 8,
      "byteOffset": 0
    },
    {
      "name": "Node-Mesh_0_normals",
      "componentType": 5126,
      "count": 3718,
      "min": [
        -0.9994483590126038,
        -0.9497923254966736,
        -0.9998824000358582
      ],
      "max": [
        0.9996016025543213,
        0.9322181344032288,
        0.9995546340942383
      ],
      "type": "VEC3",
      "bufferView": 9,
      "byteOffset": 0
    },
    {
      "name": "Node-Mesh_0_texcoords",
      "componentType": 5126,
      "count": 3718,
      "min": [
        -247.958740234375,
        -363.5159912109375
      ],
      "max": [
        247.958740234375,
        365.5159912109375
      ],
      "type": "VEC2",
      "bufferView": 10,
      "byteOffset": 0
    },
    {
      "name": "Node-Mesh_0_indices",
      "componentType": 5123,
      "count": 20652,
      "min": [
        0
      ],
      "max": [
        3717
      ],
      "type": "SCALAR",
      "bufferView": 11,
      "byteOffset": 0
    },
    {
      "name": "Node-Mesh_1_positions",
      "componentType": 5126,
      "count": 24,
      "min": [
        -83.08378601074219,
        1445.16015625,
        -108.41020965576172
      ],
      "max": [
        95.37432861328125,
        1470.4605712890625,
        -46.487037658691406
      ],
      "type": "VEC3",
      "bufferView": 8,
      "byteOffset": 44616
    },
    {
      "name": "Node-Mesh_1_normals",
      "componentType": 5126,
      "count": 24,
      "min": [
        -0.6231489777565002,
        0.5448910593986511,
        -0.8376260995864868
      ],
      "max": [
        0.5448717474937439,
        0.8813859820365906,
        0.3121199309825897
      ],
      "type": "VEC3",
      "bufferView": 9,
      "byteOffset": 44616
    },
    {
      "name": "Node-Mesh_1_texcoords",
      "componentType": 5126,
      "count": 24,
      "min": [
        -93.149169921875,
        -7.000487804412842
      ],
      "max": [
        93.149658203125,
        9
      ],
      "type": "VEC2",
      "bufferView": 10,
      "byteOffset": 29744
    },
    {
      "name": "Node-Mesh_1_indices",
      "componentType": 5123,
      "count": 66,
      "min": [
        0
      ],
      "max": [
        23
      ],
      "type": "SCALAR",
      "bufferView": 11,
      "byteOffset": 41304
    },
    {
      "name": "Node-Mesh_0_positions",
      "componentType": 5126,
      "count": 20645,
      "min": [
        -432.385009765625,
        0.5044869780540466,
        -200.13499450683594
      ],
      "max": [
        450.447998046875,
        1692.469970703125,
        139.52000427246094
      ],
      "type": "VEC3",
      "bufferView": 12,
      "byteOffset": 0
    },
    {
      "name": "Node-Mesh_0_normals",
      "componentType": 5126,
      "count": 20645,
      "min": [
        -0.9999352097511292,
        -0.9999289512634277,
        -0.9999353885650635
      ],
      "max": [
        0.9999938011169434,
        0.9999802112579346,
        0.999959409236908
      ],
      "type": "VEC3",
      "bufferView": 13,
      "byteOffset": 0
    },
    {
      "name": "Node-Mesh_0_texcoords",
      "componentType": 5126,
      "count": 20645,
      "min": [
        0.008724999614059925,
        0.010335000231862068
      ],
      "max": [
        0.9836320281028748,
        0.9956409931182861
      ],
      "type": "VEC2",
      "bufferView": 14,
      "byteOffset": 0
    },
    {
      "name": "Node-Mesh_0_indices",
      "componentType": 5123,
      "count": 114048,
      "min": [
        0
      ],
      "max": [
        20644
      ],
      "type": "SCALAR",
      "bufferView": 15,
      "byteOffset": 0
    }
  ],
  "asset": {
    "generator": "obj2gltf",
    "version": "2.0"
  },
  "buffers": [
    {
      "name": "72487",
      "byteLength": 2099832,
      "uri": "data:application/octet-stream;base64,"
    }
  ],
  "bufferViews": [
    {
      "name": "bufferView_0",
      "buffer": 0,
      "byteLength": 44904,
      "byteOffset": 0,
      "byteStride": 12,
      "target": 34962
    },
    {
      "name": "bufferView_1",
      "buffer": 0,
      "byteLength": 44904,
      "byteOffset": 44904,
      "byteStride": 12,
      "target": 34962
    },
    {
      "name": "bufferView_2",
      "buffer": 0,
      "byteLength": 29936,
      "byteOffset": 89808,
      "byteStride": 8,
      "target": 34962
    },
    {
      "name": "bufferView_3",
      "buffer": 0,
      "byteLength": 41436,
      "byteOffset": 119744,
      "target": 34963
    },
    {
      "name": "bufferView_0",
      "buffer": 0,
      "byteLength": 247740,
      "byteOffset": 161180,
      "byteStride": 12,
      "target": 34962
    },
    {
      "name": "bufferView_1",
      "buffer": 0,
      "byteLength": 247740,
      "byteOffset": 408920,
      "byteStride": 12,
      "target": 34962
    },
    {
      "name": "bufferView_2",
      "buffer": 0,
      "byteLength": 165160,
      "byteOffset": 656660,
      "byteStride": 8,
      "target": 34962
    },
    {
      "name": "bufferView_3",
      "buffer": 0,
      "byteLength": 228096,
      "byteOffset": 821820,
      "target": 34963
    },
    {
      "name": "bufferView_0",
      "buffer": 0,
      "byteLength": 44904,
      "byteOffset": 1049916,
      "byteStride": 12,
      "target": 34962
    },
    {
      "name": "bufferView_1",
      "buffer": 0,
      "byteLength": 44904,
      "byteOffset": 1094820,
      "byteStride": 12,
      "target": 34962
    },
    {
      "name": "bufferView_2",
      "buffer": 0,
      "byteLength": 29936,
      "byteOffset": 1139724,
      "byteStride": 8,
      "target": 34962
    },
    {
      "name": "bufferView_3",
      "buffer": 0,
      "byteLength": 41436,
      "byteOffset": 1169660,
      "target": 34963
    },
    {
      "name": "bufferView_0",
      "buffer": 0,
      "byteLength": 247740,
      "byteOffset": 1211096,
      "byteStride": 12,
      "target": 34962
    },
    {
      "name": "bufferView_1",
      "buffer": 0,
      "byteLength": 247740,
      "byteOffset": 1458836,
      "byteStride": 12,
      "target": 34962
    },
    {
      "name": "bufferView_2",
      "buffer": 0,
      "byteLength": 165160,
      "byteOffset": 1706576,
      "byteStride": 8,
      "target": 34962
    },
    {
      "name": "bufferView_3",
      "buffer": 0,
      "byteLength": 228096,
      "byteOffset": 1871736,
      "target": 34963
    }
  ],
  "materials": [
    {
      "name": "FABRIC_2_FRONT_3482241",
      "pbrMetallicRoughness": {
        "baseColorFactor": [
          0.086275,
          0.196078,
          0.596078,
          1
        ],
        "metallicFactor": 0,
        "roughnessFactor": 0.898394003925
      },
      "emissiveFactor": [
        0,
        0,
        0
      ],
      "alphaMode": "OPAQUE",
      "doubleSided": false
    },
    {
      "name": "Default_Fabric_FRONT_3482237",
      "pbrMetallicRoughness": {
        "baseColorFactor": [
          1,
          1,
          1,
          1
        ],
        "metallicFactor": 0,
        "roughnessFactor": 0.898394003925
      },
      "emissiveFactor": [
        0,
        0,
        0
      ],
      "alphaMode": "OPAQUE",
      "doubleSided": false
    },
    {
      "name": "Mesh_lambertSG",
      "pbrMetallicRoughness": {
        "baseColorFactor": [
          0.5,
          0.5,
          0.5,
          1
        ],
        "metallicFactor": 0,
        "roughnessFactor": 1
      },
      "emissiveFactor": [
        0,
        0,
        0
      ],
      "alphaMode": "OPAQUE",
      "doubleSided": false
    },
    {
      "name": "FABRIC_1_FRONT_19073480",
      "pbrMetallicRoughness": {
        "baseColorFactor": [
          0.576471,
          0,
          0,
          1
        ],
        "metallicFactor": 0,
        "roughnessFactor": 0.898394003925
      },
      "emissiveFactor": [
        0,
        0,
        0
      ],
      "alphaMode": "OPAQUE",
      "doubleSided": false
    },
    {
      "name": "Default_Fabric_FRONT_19073476",
      "pbrMetallicRoughness": {
        "baseColorFactor": [
          1,
          1,
          1,
          1
        ],
        "metallicFactor": 0,
        "roughnessFactor": 0.898394003925
      },
      "emissiveFactor": [
        0,
        0,
        0
      ],
      "alphaMode": "OPAQUE",
      "doubleSided": false
    },
    {
      "name": "Mesh_lambertSG",
      "pbrMetallicRoughness": {
        "baseColorFactor": [
          0.5,
          0.5,
          0.5,
          1
        ],
        "metallicFactor": 0,
        "roughnessFactor": 1
      },
      "emissiveFactor": [
        0,
        0,
        0
      ],
      "alphaMode": "OPAQUE",
      "doubleSided": false
    }
  ],
  "meshes": [
    {
      "name": "Node-Mesh",
      "primitives": [
        {
          "attributes": {
            "POSITION": 0,
            "NORMAL": 1,
            "TEXCOORD_0": 2
          },
          "indices": 3,
          "material": 0,
          "mode": 4
        },
        {
          "attributes": {
            "POSITION": 4,
            "NORMAL": 5,
            "TEXCOORD_0": 6
          },
          "indices": 7,
          "material": 1,
          "mode": 4
        }
      ]
    },
    {
      "name": "Node-Mesh",
      "primitives": [
        {
          "attributes": {
            "POSITION": 8,
            "NORMAL": 9,
            "TEXCOORD_0": 10
          },
          "indices": 11,
          "material": 2,
          "mode": 4
        }
      ]
    },
    {
      "name": "Node-Mesh",
      "primitives": [
        {
          "attributes": {
            "POSITION": 12,
            "NORMAL": 13,
            "TEXCOORD_0": 14
          },
          "indices": 15,
          "material": 3,
          "mode": 4
        },
        {
          "attributes": {
            "POSITION": 16,
            "NORMAL": 17,
            "TEXCOORD_0": 18
          },
          "indices": 19,
          "material": 4,
          "mode": 4
        }
      ]
    },
    {
      "name": "Node-Mesh",
      "primitives": [
        {
          "attributes": {
            "POSITION": 20,
            "NORMAL": 21,
            "TEXCOORD_0": 22
          },
          "indices": 23,
          "material": 5,
          "mode": 4
        }
      ]
    }
  ],
  "nodes": [
    {
      "name": "Node",
      "mesh": 0,
      "translation": [
        1000,
        0,
        0
      ],
      "rotation": [
        0,
        0,
        0,
        1
      ],
      "scale": [
        1,
        1,
        1
      ]
    },
    {
      "name": "Node",
      "mesh": 1,
      "translation": [
        1000,
        0,
        0
      ],
      "rotation": [
        0,
        0,
        0,
        1
      ],
      "scale": [
        1,
        1,
        1
      ]
    },
    {
      "name": "Node",
      "mesh": 2
    },
    {
      "name": "Node",
      "mesh": 3
    }
  ],
  "scene": 0,
  "scenes": [
    {
      "nodes": [
        0,
        1,
        2,
        3
      ]
    }
  ]
}
